<svg xmlns="http://www.w3.org/2000/svg" xmlns:xlink="http://www.w3.org/1999/xlink" width="709" height="371" viewBox="0 0 709 371">
    <defs>
        <path id="q9e4mqbsra" d="M0.01 0.904L7.36 0.904 7.36 9.304 0.01 9.304z"/>
    </defs>
    <g fill="none" fill-rule="evenodd" transform="translate(1 1)">
        <path stroke="#F1F9FC" stroke-opacity=".014" d="M0 0H707V369H0z" opacity=".148"/>
        <circle cx="21" cy="262" r="5" fill="#00E297" transform="matrix(-1 0 0 1 42 0)"/>
        <circle cx="55.5" cy="304.5" r="14.5" stroke="#BA0F73" transform="matrix(-1 0 0 1 111 0)"/>
        <g>
            <path fill="#F1F9FC" d="M235.362 228H5.639C2.526 228 0 225.482 0 222.376V7.624C0 4.518 2.526 2 5.64 2h229.722C238.476 2 241 4.518 241 7.624v214.752c0 3.106-2.524 5.624-5.638 5.624" transform="translate(57 38)"/>
            <path fill="#0A8BBD" d="M235.357 227.676c-.014-.053.848.095 2.297-.536.703-.332 1.547-.888 2.218-1.839.68-.938 1.144-2.267 1.04-3.808l-.07-26.96c-.03-23.423-.07-57.296-.12-99.15l-.045-68.469-.01-18.77c-.013-.8.046-1.6-.092-2.326-.133-.739-.422-1.454-.86-2.071-.861-1.242-2.271-2.095-3.786-2.253-3.155-.061-6.454-.014-9.712-.027l-40.382.016c-55.27.01-116.032.018-179.81.03-1.87-.013-3.7 1.038-4.599 2.678C.97 5.003.74 5.925.746 6.866V21.714L.745 45.212.739 91.156C.73 121.276.725 150.33.717 178.008L.7 218.453v2.453c.007.83-.044 1.622.146 2.358.35 1.49 1.368 2.813 2.731 3.497.674.347 1.423.546 2.18.58.773.025 1.596.007 2.39.014l4.78.001 18.746.01c24.58.017 47.474.033 68.376.046 41.796.052 75.619.092 99.005.12l26.918.07c3.069.015 5.413.028 7 .037 1.578.011 2.385.037 2.385.037s-.807.027-2.385.039l-7 .037-26.918.07c-23.386.027-57.21.068-99.005.12-20.902.012-43.796.028-68.376.044l-18.745.01c-1.587.001-3.18.004-4.78.004-.808-.007-1.588.011-2.42-.014-.848-.038-1.69-.26-2.447-.648-1.53-.768-2.674-2.249-3.068-3.925-.216-.85-.157-1.71-.167-2.507l-.002-2.453C.04 205.34.036 191.847.03 178.008L.01 91.156C.006 76.095.004 60.768.003 45.213 0 37.435 0 29.6 0 21.713V6.866C-.01 5.82.255 4.745.778 3.824 1.8 1.954 3.895.75 6.024.766l179.81.028c13.817.006 27.292.012 40.383.016 3.288.017 6.488-.031 9.78.04 1.701.178 3.282 1.136 4.246 2.53.487.691.813 1.494.962 2.323.152.85.085 1.655.102 2.44-.006 6.36-.009 12.618-.012 18.771-.015 24.611-.031 47.537-.045 68.469l-.118 99.15-.071 26.96c.096 1.553-.393 2.934-1.097 3.874-.695.964-1.561 1.517-2.278 1.843-.728.323-1.332.403-1.727.453-.4.019-.602.013-.602.013" transform="translate(57 38)"/>
            <path fill="#0A8BBD" d="M241 21.5c0 .143-53.506.26-119.495.26C55.495 21.76 2 21.643 2 21.5c0-.145 53.495-.26 119.505-.26 65.989 0 119.495.116 119.495.26M13 12c0 1.105-.896 2-2 2-1.105 0-2-.895-2-2 0-1.104.895-2 2-2 1.104 0 2 .896 2 2M23 12c0 1.105-.896 2-2 2-1.105 0-2-.895-2-2 0-1.104.895-2 2-2 1.104 0 2 .896 2 2M33 12c0 1.105-.896 2-2 2-1.105 0-2-.895-2-2 0-1.104.895-2 2-2 1.104 0 2 .896 2 2" transform="translate(57 38)"/>
        </g>
        <g>
            <path fill="#FFF" d="M235.362 228H5.639C2.526 228 0 225.482 0 222.376V7.624C0 4.518 2.526 2 5.64 2h229.722C238.476 2 241 4.518 241 7.624v214.752c0 3.106-2.524 5.624-5.638 5.624" transform="translate(105 79)"/>
            <path fill="#0A8BBD" d="M235.357 227.676c-.014-.053.848.095 2.297-.536.703-.332 1.547-.888 2.218-1.839.68-.938 1.144-2.267 1.04-3.808l-.07-26.96c-.03-23.423-.07-57.296-.12-99.15l-.045-68.469-.01-18.77c-.013-.8.046-1.6-.092-2.326-.133-.739-.422-1.454-.86-2.071-.861-1.242-2.271-2.095-3.786-2.253-3.155-.061-6.454-.014-9.712-.027l-40.382.016c-55.27.01-116.032.018-179.81.03-1.87-.013-3.7 1.038-4.599 2.678C.97 5.003.74 5.925.746 6.866V21.714L.745 45.212.739 91.156C.73 121.276.725 150.33.717 178.008L.7 218.453v2.453c.007.83-.044 1.622.146 2.358.35 1.49 1.368 2.813 2.731 3.497.674.347 1.423.546 2.18.58.773.025 1.596.007 2.39.014l4.78.001 18.746.01c24.58.017 47.474.033 68.376.046 41.796.052 75.619.092 99.005.12l26.918.07c3.069.015 5.413.028 7 .037 1.578.011 2.385.037 2.385.037s-.807.027-2.385.039l-7 .037-26.918.07c-23.386.027-57.21.068-99.005.12-20.902.012-43.796.028-68.376.044l-18.745.01c-1.587.001-3.18.004-4.78.004-.808-.007-1.588.011-2.42-.014-.848-.038-1.69-.26-2.447-.648-1.53-.768-2.674-2.249-3.068-3.925-.216-.85-.157-1.71-.167-2.507l-.002-2.453C.04 205.34.036 191.847.03 178.008L.01 91.156C.006 76.095.004 60.768.003 45.213 0 37.435 0 29.6 0 21.713V6.866C-.01 5.82.255 4.745.778 3.824 1.8 1.954 3.895.75 6.024.766l179.81.028c13.817.006 27.292.012 40.383.016 3.288.017 6.488-.031 9.78.04 1.701.178 3.282 1.136 4.246 2.53.487.691.813 1.494.962 2.323.152.85.085 1.655.102 2.44-.006 6.36-.009 12.618-.012 18.771-.015 24.611-.031 47.537-.045 68.469l-.118 99.15-.071 26.96c.096 1.553-.393 2.934-1.097 3.874-.695.964-1.561 1.517-2.278 1.843-.728.323-1.332.403-1.727.453-.4.019-.602.013-.602.013" transform="translate(105 79)"/>
            <path fill="#0A8BBD" d="M241 21.5c0 .143-53.506.26-119.495.26C55.495 21.76 2 21.643 2 21.5c0-.145 53.495-.26 119.505-.26 65.989 0 119.495.116 119.495.26M13 12c0 1.105-.896 2-2 2-1.105 0-2-.895-2-2 0-1.104.895-2 2-2 1.104 0 2 .896 2 2M23 12c0 1.105-.896 2-2 2-1.105 0-2-.895-2-2 0-1.104.895-2 2-2 1.104 0 2 .896 2 2M33 12c0 1.105-.896 2-2 2-1.105 0-2-.895-2-2 0-1.104.895-2 2-2 1.104 0 2 .896 2 2" transform="translate(105 79)"/>
        </g>
        <g stroke-linecap="round" stroke-linejoin="round">
            <path stroke="#0A8BBD" stroke-dasharray="0 23.184" stroke-width=".987" d="M674.015 110.847c9.536-44.233-69.783-29.043-68.093-89.741 1.69-60.7-99.702 35.789-119.503-2.385-19.802-38.173-55.73 99.692-140.629 69.115-84.898-30.578-76.4 131.46-108.445 65.43-32.046-66.032-78.698-73.9-70.46-44.683 8.234 29.218-38.003 37.563-50.836 1.828-12.835-35.735-63.445 56.027-113.545-69.306" transform="translate(26 22)"/>
            <path stroke="#00E297" stroke-dasharray="0 22.222" stroke-width="1.499" d="M662.791 123.528c12.843-42.888-54.487-37.52-59.688-95.798-4.79-53.65-92.959 29.441-114.651-1.545-21.552-31.038-57.068 89.353-134.316 66.44-78.216-23.201-75.06 119.41-104.925 64.174-29.842-55.194-75.877-58.914-72.535-34.57 3.42 24.902-36.796 30.22-51.539-2.69C107.67 80.543 54.582 170.663 2.186 43.325" transform="translate(26 22)"/>
            <path stroke="#6BD9FC" stroke-dasharray="0 21.262" stroke-width="2.012" d="M651.568 136.21c16.15-41.545-38.694-45.04-51.285-101.857-10.222-46.12-86.311 23.192-109.798-.703-23.4-23.808-58.501 79.074-128.004 63.763-71.631-15.781-73.761 107.29-101.404 62.92-27.69-44.45-73.138-44.453-74.607-24.457-1.484 20.206-36.169 23.017-52.242-7.21C111.744 86.389 56.56 174.89 1.866 45.549" transform="translate(26 22)"/>
            <path stroke="#0A8BBD" stroke-dasharray="0 20.3" stroke-width="2.525" d="M640.344 148.891c19.458-40.2-21.979-51.876-42.882-107.914-14.32-38.388-79.568 16.901-104.943.137-25.154-16.618-60.047 68.91-121.692 61.087-65.168-8.27-72.563 95.071-97.883 61.664-25.656-33.848-67.083-29.306-76.682-14.342-3.009 15.762-35.942 15.97-52.946-11.73-27.895-45.44-84.777 41.323-141.769-90.022" transform="translate(26 22)"/>
            <path stroke="#070033" stroke-dasharray="0 19.339" stroke-width="3.037" d="M629.12 161.572c22.766-38.855-3.856-58.68-34.478-113.97-17.076-30.834-72.787 10.584-100.09.976-26.868-9.454-61.709 58.943-115.38 58.412-58.832-.584-71.627 82.738-94.362 60.41-23.888-23.462-63.211-14.444-78.754-4.23-6.757 11.276-35.99 9.078-53.651-16.25C118.68 98.56 60.516 183.344 1.229 49.995" transform="translate(26 22)"/>
            <path stroke="#611076" stroke-dasharray="0 18.378" stroke-width="3.55" d="M617.896 174.254c26.072-37.51 16.109-66.55-26.073-120.029-18.81-23.847-65.994 4.215-95.239 1.818-28.567-2.343-63.434 49.289-109.066 55.735-52.57 7.427-71.35 70.465-90.842 59.155-22.785-13.221-60.506-2.983-80.827 5.883-11.466 5.004-36.21 2.34-54.354-20.769-39.986-50.925-99 31.522-160.586-103.832" transform="translate(26 22)"/>
            <path stroke="#BA0F73" stroke-dasharray="0 17.417" stroke-width="4.063" d="M606.673 186.936c29.38-36.168 37.998-76.971-17.67-126.086-20.11-17.744-59.222-2.204-90.385 2.657-30.294 4.724-65.06 40.054-102.755 53.059-46.184 15.935-72.068 59.218-87.32 57.9-22.78-1.97-55.578 13.443-82.9 15.998-14.378 1.343-36.535-4.251-55.06-25.29C123.892 112.152 64.473 191.795.591 54.439" transform="translate(26 22)"/>
            <path stroke="#EF6333" stroke-dasharray="0 16.456" stroke-width="4.576" d="M595.45 199.617c32.686-34.822 60.978-91.206-9.267-132.143C515.936 26.537 351.32 160.009 320.41 178c-32.786 19.084-86.9 50.852-140.738-3.697C125.832 119.755 66.45 196.022.272 56.66" transform="translate(26 22)"/>
        </g>
        <circle cx="296" cy="115" r="3" fill="#EF6333" transform="matrix(-1 0 0 1 592 0)"/>
        <circle cx="329" cy="63" r="6" fill="#0A8BBD" transform="matrix(-1 0 0 1 658 0)"/>
        <g transform="translate(411 118)">
            <ellipse cx="96.5" cy="238.5" fill="#F1F9FC" rx="96.5" ry="5.5"/>
            <path fill="#070033" d="M60.688 147.391L145.2 240.71 150.671 236.28 65.897 142.673z"/>
            <path fill="#070033" d="M55.828 235.13L61.038 240.594 147.492 147.976 142.374 143.159z"/>
            <path fill="#500962" d="M194.025 0.001L138.752 1.379 77.601 142.708 145.555 142.862 194.061 0.001z"/>
            <path fill="#611076" d="M194.061 0.001L145.555 142.862 5 142.862 5 153.173 150.095 153.173 201.497 6.021 194.062 0.001z"/>
            <path fill="#611076" d="M30.408 147.391L114.92 240.71 120.39 236.28 35.618 142.673z"/>
            <path fill="#611076" d="M25.547 235.13L30.592 240.594 117.211 147.976 112.093 143.159z"/>
            <path fill="#611076" d="M72.439 192.892L105.225 192.892 105.225 185.299 72.439 185.299z"/>
        </g>
        <g>
            <path fill="#0A8BBD" stroke="#6BD9FC" d="M30.959 232.528L61.526 262.769 74.444 244.639 58.261 223.233 49.434 223.233z" transform="translate(364 38)"/>
            <g transform="translate(364 38) translate(0 .926)">
                <path fill="#F1F9FC" d="M80.154 248.273l28.36 27.643L74.718 312c-4.814-3.472 7.637-29.907 7.637-29.907l-22.868-21.095 20.666-12.725z"/>
                <path fill="#0A8BBD" d="M84.33 301.3c-.069.048-.388-.357-.998-.887-.607-.53-1.548-1.15-2.71-1.54-1.166-.384-2.289-.45-3.094-.386-.805.057-1.302.192-1.33.112-.02-.055.443-.32 1.284-.478.835-.162 2.055-.154 3.304.258 1.247.417 2.23 1.14 2.801 1.77.58.63.793 1.12.743 1.15"/>
                <path fill="#F1F9FC" d="M56.436 258.164c-.753.926-.595 2.289.35 3.018 2.545 1.959 7.059 5.345 7.45 5.009.549-.469 17-17.391 16.923-18.566-.08-1.176-7.197-9.104-8.623-8.555-1.181.454-11.997 14.051-16.1 19.094"/>
                <path fill="#0A8BBD" d="M101.17 283.106c-.03.044-.779-.428-1.627-1.556-.843-1.106-1.717-2.952-1.771-5.13-.051-2.178.731-4.065 1.519-5.212.792-1.167 1.518-1.674 1.55-1.632.064.062-.558.657-1.237 1.827-.68 1.153-1.36 2.954-1.312 5.004.052 2.05.818 3.815 1.554 4.934.735 1.135 1.386 1.7 1.324 1.765"/>
                <path fill="#0A8BBD" stroke="#6BD9FC" d="M124.422 118.436L114.622 149.498 93.621 179.162 106.9 188.725 129.852 160.399 137.536 125.296zM157.08 26.69l22.979 5.862c2.235.242 3.915 2.154 3.866 4.403l-.754 15.426c.797-.17 1.654-.069 2.444.387 1.297.75 2.29 2.258 2.17 5.152-.188 4.56-2.947 5.76-5.174 5.93l-1.271 26.044c-.107 6.91-10.21 10.793-17.606 10.621-7.475-1.765-7.747-6.248-7.84-12.822-.1-7.065-.11-7.128-.113-7.065 0 0-9.437-1.589-11.366-13.91-.96-6.128-.63-16.17-.093-24.379.48-7.389 5.397-16.444 12.758-15.649z"/>
                <path fill="#070033" d="M147.482 51.395c-.031.833.649 1.547 1.52 1.596.868.05 1.6-.585 1.63-1.42.031-.834-.649-1.55-1.518-1.597-.87-.05-1.602.587-1.632 1.42M163.306 51.395c-.031.833.649 1.547 1.52 1.596.869.05 1.6-.585 1.63-1.42.033-.834-.648-1.55-1.517-1.597-.87-.05-1.602.587-1.633 1.42"/>
                <circle cx="164.5" cy="58.082" r="3.5" fill="#F1F9FC" fill-opacity=".222"/>
                <circle cx="146.5" cy="58.082" r="2.5" fill="#F1F9FC" fill-opacity=".22"/>
                <g transform="scale(-1 1) rotate(-8 293.829 1160.544)">
                    <mask id="o8iolhawfb" fill="#fff">
                        <use xlink:href="#q9e4mqbsra"/>
                    </mask>
                    <path fill="#69D8FB" stroke="#6BD9FC" stroke-width=".525" d="M2.336 9.304c-.124 0-.225-.125-.226-.28 0-.156.1-.282.225-.283l1.173-.009c.722-.004 1.305-.938 1.3-2.08v-.166c-.002-.224-.058-.432-.16-.585-.089-.136-.203-.21-.321-.21h-.009c-.79 0-1.434-.954-1.439-2.13V1.187c0-.156.102-.282.226-.282.125 0 .227.126.227.282V3.56c.003.865.446 1.567.986 1.567h.01c.255 0 .494.147.67.416.167.253.26.586.262.94v.166c.006 1.453-.779 2.64-1.749 2.647l-1.174.008h0z" mask="url(#o8iolhawfb)"/>
                </g>
                <path fill="#070033" d="M155.78 79.628s8.285.553 16.506-4.364c0 0-4.18 8.685-16.506 7.505v-3.141z" opacity=".205"/>
                <path fill="#BA0F73" d="M157.273 64.648c.843-1.262 2.117-2.104 3.267-2.16.796-.037 1.544.313 1.915 1.069.368.755.294 1.937-.275 2.826-.64 1-1.728 1.406-2.576 1.245-.848-.16-1.507-.771-2.128-1.385-.17-.171-.345-.35-.43-.61-.084-.261-.056-.628.135-.892"/>
                <path fill="#6BD9FC" d="M162 61.702c-.277-.017-.285 1.83-1.867 3.135-1.579 1.31-3.546 1.098-3.56 1.357-.027.115.437.36 1.267.383.814.03 2.004-.229 2.972-1.028.965-.8 1.381-1.87 1.446-2.628.072-.772-.132-1.229-.259-1.219"/>
                <path fill="#070033" d="M162.38 44.104c.212.443 1.88.059 3.888.102 2.008.003 3.667.426 3.889-.012.098-.21-.223-.614-.915-.996-.684-.381-1.75-.703-2.955-.718-1.204-.012-2.276.284-2.97.65-.7.365-1.031.763-.937.974M146.638 45.204c.373.385 1.826-.018 3.576-.04 1.748-.071 3.232.254 3.57-.15.15-.197-.084-.583-.731-.948-.64-.362-1.706-.658-2.908-.627-1.202.033-2.243.385-2.851.78-.617.399-.82.797-.656.985M158.917 19.463c-1.509-.93-2.126-3.067-1.347-4.659-.514-.73.093-1.818.935-2.118.842-.3 1.769-.062 2.631.177-.232-.412.386-.766.854-.84 1.086-.175 2.172-.349 3.259-.522-1.513-.32-2.766-1.488-3.407-2.895-.642-1.407-.723-3.02-.467-4.546.074-.44.204-.919.575-1.165.982 1.12 1.757 2.418 2.276 3.813.895.041 1.766.48 2.332 1.176.185-.506.919-.703 1.334-.359.688-1.925 1.995-3.958 4.025-4.19-.638-.897.519-1.97 1.503-2.462.721-.36 1.464-.725 2.267-.79.802-.066 1.69.241 2.081.945.39.704.028 1.783-.766 1.918.828.553 1.178 1.723.79 2.64.621-.767 1.805-1.008 2.676-.546 1.399-.614 2.966-.842 4.482-.653.39.05.795.133 1.097.385.229.191.382.465.62.645.339.256.791.282 1.213.324.97.097 1.965.35 2.701.987.736.638 1.136 1.74.732 2.625 2.248.73 4.478-1.856 6.796-1.398 1.358.268 2.297 1.514 2.889 2.765-1.142.465-2.396.65-3.624.533-.144.674-.806 1.2-1.495 1.185.403.461.089 1.321-.516 1.415 1.387-.46 2.905-.265 4.327.071 2.165.512 4.541 1.65 5.041 3.816.177.767.086 1.567-.004 2.35-.136 1.167-.733 2.703-1.889 2.487-.713-.133-1.083-.896-1.464-1.514-.837-1.355-2.226-2.358-3.775-2.726-.553.536.473 1.222.918 1.85.439.62.262 1.465.374 2.217.169 1.145 1.012 2.058 1.514 3.101 1.085 2.253.516 4.916-.074 7.347-.16.661-.91 1.477-1.317.932.837.117 1.375 1.025 1.377 1.87.002.844-.394 1.631-.78 2.382-.165.322-.371.676-.722.758-.509.12-.924-.393-1.197-.839l-2.212-3.634c.198.82.127 1.684-.058 2.507-.359 1.593-1.302 3.22-2.866 3.686-1.074.32-2.224.036-3.307-.247"/>
                <path fill="#070033" d="M181.082 57.941c-.48-.198-.319.411-.637 0-1.607-2.088-2.478-8.052-2.88-10.657-.4-2.604 1.226-5.51.981-8.135-.197-2.1-.587-4.315-1.981-5.9-.841-.956-1.988-1.6-3.183-2.04-3.672-1.346-7.99-.77-11.181 1.491-1.318.936-2.565 2.184-4.175 2.335-1.599.15-3.052-.83-4.429-1.657-1.377-.826-3.079-1.548-4.539-.878-.571.262-1.034.713-1.447 1.186-1.003 1.15-3.068 6.192-3.105 8.19 0 0-1.017-4.646.736-8.94 2.12-5.19 7.822-11.058 16.915-12.534 14.559-2.363 21.383 5.743 23.969 11.536 1.11 2.486 2.033 9 1.228 14.022-1.07 6.681-4.184 8.614-4.184 8.614l-2.088 3.367z"/>
                <path fill="#00E297" d="M187.071 33.946c-.219.07-.81-1.566-2.269-3.904-.73-1.162-1.66-2.515-2.877-3.845-1.205-1.329-2.68-2.675-4.455-3.635-1.788-.959-3.717-1.5-5.473-1.786-1.768-.274-3.398-.283-4.756-.165-2.727.243-4.362.873-4.449.648-.036-.086.326-.352 1.055-.688.726-.345 1.834-.723 3.256-.988 1.42-.26 3.163-.365 5.077-.146 1.91.236 3.99.767 5.986 1.833 2.001 1.087 3.554 2.58 4.78 4.042 1.233 1.464 2.116 2.945 2.762 4.224 1.285 2.578 1.532 4.37 1.363 4.41"/>
                <path fill="#455A64" d="M172.852 21.3c0 .023-.314.045-.88.103-.564.056-1.38.168-2.367.394-1.968.44-4.646 1.46-7.067 3.385-2.424 1.927-4.021 4.306-4.893 6.124-.442.911-.735 1.68-.918 2.218-.183.537-.275.84-.3.833-.01-.002.003-.08.034-.228.035-.146.075-.366.158-.639.149-.552.415-1.339.838-2.273.834-1.86 2.43-4.303 4.898-6.264 2.465-1.96 5.204-2.966 7.205-3.359 1.005-.202 1.832-.284 2.403-.305.286-.019.509-.009.659-.01.15.003.229.01.23.02M176.728 23.056c.02.042-.65.363-1.704.93-1.054.568-2.482 1.402-3.976 2.449-1.492 1.049-2.762 2.108-3.654 2.907-.892.797-1.422 1.318-1.454 1.286-.016-.014.1-.16.325-.412.22-.254.559-.606.989-1.026.86-.842 2.12-1.937 3.627-2.995 1.506-1.056 2.964-1.87 4.048-2.392.542-.263.988-.46 1.302-.582.313-.124.49-.184.498-.165M184.603 29.59c.02.003.01.177-.028.489-.034.312-.111.76-.227 1.31-.232 1.098-.666 2.598-1.353 4.173-.69 1.574-1.498 2.91-2.148 3.826-.325.459-.602.819-.806 1.056-.206.24-.326.366-.34.353-.037-.03.375-.585.974-1.524.601-.938 1.368-2.273 2.051-3.83.68-1.554 1.14-3.025 1.42-4.103.282-1.077.412-1.757.458-1.75M180.544 47.2c-.042-.037.595-.717 1.444-1.944.429-.611.888-1.372 1.345-2.244.444-.88.879-1.873 1.24-2.95.352-1.081.595-2.138.762-3.11.151-.972.236-1.857.256-2.603.048-1.492-.058-2.417-.003-2.422.02-.002.06.227.112.645.059.417.096 1.027.098 1.78.007.755-.057 1.654-.196 2.643-.155.986-.394 2.06-.75 3.159-.368 1.094-.816 2.099-1.28 2.984-.476.877-.96 1.637-1.415 2.239-.451.604-.843 1.072-1.139 1.372-.292.304-.459.465-.474.45"/>
                <path fill="#6BD9FC" d="M182.258 60.678c.035-.023.13.1.354.213.217.111.595.197 1.003.062.829-.265 1.568-1.53 1.663-2.92.048-.703-.071-1.377-.297-1.94-.212-.576-.561-.985-.97-1.075-.403-.11-.704.122-.808.336-.112.211-.07.367-.111.38-.022.017-.16-.137-.085-.453.038-.152.137-.33.324-.472.19-.143.467-.208.75-.165.595.065 1.108.635 1.357 1.254.28.623.432 1.383.378 2.171-.115 1.553-.97 2.975-2.1 3.252-.548.12-.994-.063-1.221-.255-.231-.2-.264-.375-.237-.388"/>
                <path fill="#0A8BBD" d="M155.201 89.058L181.216 86.865 184.976 87.246 168.373 100.888 159.892 103.843 152.436 100.356 150.634 95.353z"/>
                <path fill="#070033" d="M120.169 112.877s9.551-14.396 12.44-16.963c3.478-3.092 9.786-5.483 9.786-5.483l12.806-1.372s-7.889 9.116 1.157 10.247c9.048 1.13 28.619-12.06 28.619-12.06s13.678 2.56 17.071 4.596c3.392 2.036 11.988 7.238 11.535 21.035l.018 11.083s-25.803-.904-26.029 0c-.226.905-5.428 41.619-5.428 41.619l-13.12 7.916s-31.439-17.19-33.701-16.737c-2.261.452-4.523-33.476-4.523-33.476s-9.048-4.298-10.631-10.405"/>
                <path fill="#FFCA23" d="M123.672 179.492l4.837-27.867s-4.627-10.615-3.811-15.787c.817-5.172 8.148-14.426 8.148-14.426l41.118-2.45v38.923s-2.506 11.652 2.149 13.992c4.656 2.34 10.916 7.783 10.916 7.783s-1.847 25.47-3.56 34.048c-1.686 8.447-11.333 8.417-11.333 8.417l-31.686-.49-78.924-36.819c21.695 1.883 42.448.25 62.146-5.324"/>
                <path fill="#263238" d="M178.143 114.73c.114.087-.203.69-.708 1.348-.505.656-1.006 1.118-1.12 1.03-.114-.088.203-.69.708-1.348.505-.657 1.007-1.118 1.12-1.03M181.8 109.974c.114.088-.203.69-.708 1.348-.505.657-1.007 1.118-1.12 1.03-.114-.088.203-.691.708-1.348.505-.656 1.007-1.118 1.12-1.03M185.457 105.217c.114.088-.203.69-.708 1.348-.505.657-1.007 1.118-1.12 1.03-.114-.087.202-.691.708-1.348.505-.656 1.006-1.118 1.12-1.03M189.114 100.46c.114.087-.203.691-.708 1.348-.505.656-1.007 1.118-1.12 1.03-.114-.087.202-.69.708-1.347.505-.657 1.006-1.119 1.12-1.03M192.772 95.704c.114.088-.203.69-.708 1.348-.505.657-1.007 1.118-1.12 1.03-.114-.087.202-.691.708-1.347.505-.657 1.006-1.118 1.12-1.031M196.788 91.271c.082.12-.382.592-.956 1.163-.579.568-1.09 1.009-1.202.915-.109-.09.232-.692.837-1.287.603-.6 1.241-.909 1.321-.791M173.523 112.218c.107.097-.264.668-.828 1.277-.566.61-1.108 1.023-1.212.923-.105-.1.267-.671.83-1.276.562-.607 1.104-1.02 1.21-.924M177.418 107.654c.112.09-.228.681-.758 1.32-.53.64-1.05 1.082-1.158.99-.109-.095.229-.686.758-1.322.527-.635 1.046-1.078 1.158-.988M181.057 102.884c.117.083-.19.692-.684 1.359-.495.668-.988 1.138-1.102 1.05-.114-.087.19-.696.683-1.36.493-.663.986-1.133 1.103-1.05M184.429 97.92c.12.077-.151.702-.608 1.396-.458.693-.925 1.19-1.043 1.108-.12-.08.153-.705.608-1.395.454-.69.922-1.186 1.043-1.109M187.736 92.917c.11.092-.179.711-.647 1.381-.468.671-.948 1.153-1.07 1.078-.123-.075.166-.693.647-1.38.48-.689.961-1.17 1.07-1.079M192.541 89.433c.057.135-.515.495-1.231.876-.718.38-1.317.67-1.403.553-.086-.114.407-.616 1.157-1.012.748-.397 1.422-.547 1.477-.417M139.91 115.033c.141.033.104.714-.082 1.522-.185.808-.449 1.437-.589 1.405-.14-.03-.103-.713.082-1.522.186-.808.45-1.438.59-1.405M141.403 109.218c.138.04.075.72-.14 1.519-.216.797-.505 1.417-.644 1.38-.14-.034-.076-.713.14-1.517.217-.804.505-1.422.644-1.382M143.335 103.539c.134.055.011.725-.274 1.497-.286.773-.628 1.362-.764 1.316-.137-.044-.014-.715.274-1.497.289-.781.631-1.371.764-1.316M145.984 98.156c.123.075-.095.721-.485 1.443-.392.723-.815 1.257-.944 1.195-.13-.062.088-.708.486-1.443.398-.735.82-1.27.943-1.195M149.544 93.33c.105.099-.23.692-.75 1.328-.52.635-1.036 1.082-1.153.998-.117-.085.219-.68.751-1.329.531-.648 1.048-1.094 1.152-.996M153.688 89.725c.08.12-.295.553-.837.967-.543.414-1.06.66-1.155.553-.094-.108.28-.541.839-.967.556-.426 1.073-.673 1.153-.553M134.105 114.463c.14.026.162.708.047 1.522-.115.815-.325 1.463-.468 1.45-.143-.014-.166-.696-.048-1.523.117-.826.327-1.474.469-1.45M135.586 108.654c.137.046.06.724-.173 1.513-.231.79-.532 1.4-.672 1.365-.139-.035-.062-.712.173-1.513.235-.8.536-1.41.672-1.365M137.875 103.111c.129.065-.043.725-.384 1.474-.341.75-.724 1.312-.857 1.257-.134-.053.038-.712.384-1.472.344-.76.729-1.323.857-1.259M140.914 97.94c.118.082-.144.711-.585 1.405-.44.695-.9 1.2-1.024 1.127-.125-.072.137-.7.585-1.406.448-.705.906-1.209 1.024-1.127M144.647 93.246c.105.098-.242.684-.776 1.31-.536.625-1.06 1.059-1.174.971-.114-.089.234-.676.778-1.31.542-.635 1.067-1.069 1.172-.971M148.657 89.43c.092.112-.257.576-.778 1.037-.522.46-1.025.75-1.124.646-.099-.104.25-.568.78-1.036.528-.468 1.031-.757 1.122-.646"/>
                <path fill="#F89B34" d="M175.96 193.951c.861 5.246 1.172 10.581.926 15.891 3.241-3.5 4.723-8.553 3.886-13.249-.461-2.59-1.54-5.439-.183-7.695.91-1.513 3.315-3.252 2.965-4.982 0 0-2.108 0-4.02-.077-1.533-.06-4.722-.156-4.722-.156 1.612 4.15 1.489 6.707.846 10.418"/>
                <path fill="#0A8BBD" stroke="#6BD9FC" d="M211.774 123.96s-5.744 26.836-7.012 33.702c-1.824 9.875-8.595 23.072-12.214 25.559-3.617 2.486-61.094-2.501-61.162-2.507-1.54.378-5.953 1.2-7.714-1.222-2.152-2.959-8.44-7.622-8.44-7.622h0l-5.102.494s-.042 2.151-1.118 2.421c-.162.04-.32.06-.467.062-.746.017-1.414-.462-1.706-1.148 0 0-1.376.486-2.05.352-.672-.135-.903-2.744-.903-2.744s-1.477.211-1.83-1.196c-.232-.932 1.845-4.74 1.845-4.74h0l3.804-5.23c.997-1.37 2.56-2.216 4.252-2.299h0l8.212-.407s1.889.404 2.292 1.211c0 0 2.959-.404 3.497 1.21.5 1.499.071 1.142.008 1.083l8.273 8.529.043-.171 48.313-7.25 4.977-38.087h24.202z"/>
                <path fill="#6BD9FC" d="M124.692 167.105c-.015.085-1.093-.086-2.838-.124-1.742-.029-4.166.118-6.733.81-1.283.34-2.475.773-3.526 1.241-1.02.49-2.078.88-2.44 1.575-.182.341-.134.702.025.977.155.274.378.461.581.56.417.205.701.102.708.152.02.013-.267.208-.787.036-.25-.086-.534-.276-.75-.596-.223-.304-.33-.828-.109-1.287.207-.464.636-.806 1.09-1.079.462-.263.946-.53 1.483-.775 1.063-.502 2.278-.96 3.591-1.308 2.63-.707 5.117-.799 6.883-.674 1.772.135 2.834.436 2.822.492"/>
                <path fill="#6BD9FC" d="M124.922 172.34c-.02.154-3.327-.201-7.418-.23-4.092-.042-7.404.256-7.421.102-.008-.067.813-.23 2.155-.376 1.343-.147 3.208-.263 5.27-.246 2.062.019 3.926.167 5.265.337 1.339.169 2.158.346 2.149.414M106.9 173.495c-.027-.007-.044-.31-.046-.875.003-.563.022-1.38.15-2.387.068-.503.16-1.054.336-1.638.168-.587.494-1.196.917-1.724.808-1.063 1.904-2.148 3.26-2.927 1.35-.769 2.691-1.406 4.027-1.716 1.325-.308 2.547-.326 3.555-.305 1.01.031 1.821.106 2.38.164.56.06.866.11.865.145-.003.083-1.25.043-3.246.06-.994.025-2.182.083-3.44.403-1.25.312-2.57.952-3.875 1.696-1.308.756-2.33 1.75-3.149 2.777-.855.976-1.079 2.146-1.265 3.121-.325 1.96-.358 3.217-.47 3.206"/>
                <path fill="#6BD9FC" d="M119.64 159.48c-.004.078-1.227.03-3.188.127-1.894.164-4.904.105-6.783 2.578-2.005 2.231-3.724 4.348-4.532 6.124-.848 1.762-.865 3.018-.971 3.001-.028 0-.055-.31.009-.867.06-.556.233-1.359.626-2.283.752-1.882 2.467-4.083 4.484-6.326.513-.563 1.065-1.092 1.689-1.498.623-.414 1.33-.632 1.977-.775 1.308-.278 2.498-.308 3.49-.322 1.987-.003 3.205.176 3.2.241"/>
                <path fill="#FFCA23" d="M82.16 188.725s-46.325-15.913-57.255-16.877c-10.93-.965-19.843 4.396-22.093 7.93-2.25 3.537-3.747 19.328-2.139 23.828 1.606 4.5 27.161 31.729 27.161 31.729l24.156-13.027 81.202-.152-23.71-32.146-27.323-1.285z"/>
                <path fill="#F1F9FC" d="M94.408 201.474c-13.459 1.582-27.31-.303-39.858-5.423-2.194-.895-4.36-1.891-6.657-2.474-2.233-.567-4.566-.732-6.856-.485-1.813.196-3.74.739-4.843 2.193-1.619 2.136-.786 5.17.113 7.697 1.054 2.96 2.152 5.995 4.213 8.366 2.411 2.773 5.908 4.358 9.411 5.462 6.857 2.16 14.1 2.78 21.282 3.065l24.677-1.35-1.482-17.051z"/>
                <path fill="#0A8BBD" d="M47.139 194.25c.205.445.45 1.114.653 1.972.414 1.699.553 4.226-.278 6.814-.833 2.59-2.42 4.563-3.746 5.702-.664.578-1.254.979-1.68 1.22-.426.245-.678.348-.694.319-.05-.078.892-.615 2.124-1.81 1.227-1.178 2.7-3.108 3.5-5.59.797-2.481.724-4.908.414-6.581-.305-1.688-.756-2.674-.671-2.71.03-.013.175.218.378.664z"/>
                <path fill="#FFCA23" d="M175.701 186.475c-1.929-5.465-2.25-13.501-14.144-17.358-11.893-3.858-20.894 3.535-27.002 6.107-6.107 2.57-39.538 20.895-39.538 20.895s-6.295 11.225-4.503 16.179c1.793 4.954 9.935 9.858 9.935 9.858H137.826c9.644 0 27.59-.322 27.59-.322 3.301-5.178 6.428-12.214 6.428-12.214l.321-1.608c0-1.286 5.465-16.073 3.536-21.537M155.201 89.058l-7.304.345s-5.185 2.84-9.705 11.262c-4.956 9.237-5.046 17.319-5.046 17.319l6.571-.18s2.33-9.987 4.862-14.99c4.282-8.462 10.622-13.755 10.622-13.755M194.315 87.825c-.87.623-5.744 1.841-8.529 6.018-2.785 4.178-14.882 20.47-14.882 20.47l6.044 3.491 16.911-22.116s3.415-4.978 6.722-5.152l-6.266-2.71z"/>
                <path fill="#E0E0E0" d="M176.27 117.412c.02-.046.348.168.997.232.623.065 1.672-.142 2.332-1.086.315-.463.503-1.083.414-1.732-.084-.642-.445-1.304-1.057-1.7l-4.476-2.573c-.722-.418-1.63-.418-2.32-.044-.702.358-1.16 1.064-1.265 1.778-.111.72.127 1.435.545 1.93.405.494 1.043.752 1.546 1.086 1.03.623 1.86 1.134 2.429 1.498.567.364.873.58.855.611-.02.031-.357-.126-.957-.436-.6-.309-1.457-.772-2.512-1.354l-.827-.458c-.292-.158-.612-.379-.86-.666-.51-.569-.814-1.412-.694-2.278.113-.86.652-1.718 1.5-2.162.833-.46 1.943-.466 2.82.043 1.595.928 3.094 1.784 4.486 2.627.725.491 1.139 1.29 1.216 2.047.085.766-.162 1.484-.544 1.997-.805 1.056-1.997 1.205-2.656 1.074-.348-.058-.592-.182-.753-.263-.155-.098-.23-.155-.22-.17M138.816 117.983c-.005-.05.385-.027.98-.297.572-.256 1.376-.96 1.476-2.107.042-.558-.105-1.19-.507-1.706-.393-.514-1.038-.907-1.766-.946l-5.162.011c-.834 0-1.62.452-2.032 1.122-.428.662-.47 1.501-.206 2.172.263.68.827 1.18 1.437 1.397.598.227 1.278.132 1.882.17 1.204.024 2.178.052 2.852.083.674.031 1.046.065 1.046.101 0 .036-.372.07-1.046.102-.674.031-1.648.06-2.852.083-.305.004-.62.01-.946.016-.332.01-.719-.02-1.079-.146-.724-.239-1.409-.817-1.739-1.626-.332-.8-.295-1.814.22-2.622.49-.816 1.447-1.375 2.463-1.372 1.845.004 3.57-.003 5.198.031.873.062 1.63.548 2.075 1.165.457.62.602 1.365.528 2.001-.169 1.317-1.127 2.043-1.763 2.26-.33.122-.604.136-.784.147-.182-.008-.275-.02-.275-.039"/>
                <path fill="#E0E0E0" d="M138.742 117.817c.061.023-.216.98-.04 2.59.053.8.19 1.786-.035 2.897-.186 1.083-1.083 2.375-2.537 2.483-.72.054-1.404-.364-1.758-.896-.372-.53-.53-1.138-.557-1.71-.033-1.138.281-2.073.377-2.857.276-1.597-.342-2.478-.282-2.5.021-.02.226.154.416.59.19.43.31 1.123.231 1.951-.057.825-.323 1.775-.263 2.79.033.494.186 1.016.492 1.438.298.425.786.71 1.318.673.533-.024 1.04-.322 1.401-.704.367-.38.574-.872.694-1.364.231-.995.145-1.963.135-2.774-.085-1.649.336-2.65.408-2.607"/>
                <path fill="#455A64" d="M137.48 120.924l-.617-.292c-1.225-.386-2.688.313-3.154 1.508-.468 1.194.131 2.7 1.292 3.247 1.161.546 2.704.049 3.327-1.072.624-1.121.23-2.695-.847-3.391"/>
                <path fill="#E0E0E0" d="M171.695 114.707c-.855 1.233-1.764 2.428-2.729 3.577-.664.792-1.642 1.842-1.1 2.961.216.447.66.686 1.132.779.244.048.491.061.738.067.361.009.701.095 1.056.156.5.084.942.041 1.314-.332.39-.392.607-.919.833-1.412.611-1.336 1.645-2.431 2.731-3.4.12-.108-.058-.284-.178-.177-.818.731-1.599 1.538-2.218 2.447-.28.414-.482.861-.693 1.313-.22.473-.513 1.148-1.056 1.317-.514.159-1.096-.122-1.613-.157-.547-.037-1.157.001-1.592-.401-.517-.476-.385-1.26-.079-1.81.296-.532.743-.98 1.13-1.446.893-1.082 1.74-2.203 2.54-3.356.092-.132-.125-.258-.216-.126"/>
                <path fill="#455A64" d="M171.417 118.382l-.619-.291c-1.223-.387-2.686.312-3.153 1.507-.467 1.194.132 2.7 1.293 3.247 1.16.547 2.704.049 3.326-1.072.623-1.121.23-2.695-.847-3.391"/>
                <path fill="#F89B34" d="M174.211 217.069c.878-2.335 1.832-5.667 2.27-9.448.427-3.784.248-7.246-.08-9.719-.324-2.475-.709-3.981-.619-4.005.035-.008.157.361.351 1.038.201.675.423 1.671.633 2.915.424 2.482.666 5.994.233 9.831-.444 3.834-1.47 7.2-2.445 9.523-.485 1.163-.926 2.084-1.275 2.696-.34.617-.543.949-.575.932-.083-.043.633-1.424 1.507-3.763zM38.238 183.295c.062-.007.215.74.252 1.972.04 1.228-.076 2.94-.512 4.773-.44 1.832-1.11 3.41-1.7 4.489-.59 1.08-1.064 1.679-1.117 1.646-.147-.08 1.471-2.66 2.31-6.256.876-3.586.6-6.62.767-6.624M29.962 184.9c.023-.054.583.116 1.356.647.772.525 1.716 1.462 2.4 2.731.679 1.27.937 2.576.948 3.51.015.937-.154 1.497-.212 1.487-.084-.009-.05-.575-.155-1.462-.104-.885-.401-2.092-1.04-3.289-.644-1.193-1.485-2.11-2.165-2.686-.68-.579-1.171-.863-1.132-.938M166.403 205.352c-.078-.732-.369-1.602-1.09-1.749-.883-.18-1.487.834-1.845 1.66-3.837 8.876-16.46 15.79-26.09 16.683 3.96.03 10.082-.434 13.978-1.14 3.897-.708 7.74-2.203 10.662-4.877 2.921-2.673 4.808-6.638 4.385-10.577"/>
                <path fill="#F89B34" d="M35.161 196.175c1.776-4.726 1.727-9.51.652-14.441-.097-.452-.09-1.095.364-1.176.232-.042.453.112.62.278.764.759 1.035 1.877 1.175 2.944.551 4.22-.534 8.433-2.81 12.395M87.307 191.238c-2.898-1.255-5.202-2.38-5.148-2.514.054-.134 2.452.78 5.358 2.037 2.904 1.26 5.21 2.384 5.147 2.514-.062.13-2.46-.782-5.357-2.037z"/>
                <path fill="#070033" d="M50.758 185.637c.752 1.663 2.399 2.74 4.223 2.765l52.964.686 6.677-3.594-10.456-.765-16.275-39.06c-.52-1.245-1.731-2.06-3.081-2.071l-50.745-.384c-1.164-.01-1.944 1.19-1.465 2.25l18.158 40.173z"/>
                <path fill="#FFF" d="M69.75 164.94c0 1.435-1.162 2.597-2.597 2.597-1.434 0-2.596-1.162-2.596-2.597s1.162-2.597 2.596-2.597c1.435 0 2.597 1.162 2.597 2.597"/>
            </g>
        </g>
    </g>
</svg>
