<svg xmlns="http://www.w3.org/2000/svg" width="60" height="67" viewBox="0 0 60 67">
    <g fill="#611076">
        <path d="M41.537 12.6c3.074 3.413 5.018 7.862 5.241 12.766h3.78c-.23-5.94-2.592-11.34-6.35-15.437L41.537 12.6zm5.205 14.803c-.216 4.867-2.167 9.281-5.234 12.665l2.671 2.671c3.744-4.075 6.12-9.432 6.38-15.336H46.741zM11.117 40.068c-3.067-3.384-5.019-7.798-5.27-12.665h-3.78c.259 5.904 2.635 11.261 6.379 15.336l2.67-2.671zM5.882 25.366c.18-4.904 2.124-9.353 5.206-12.766L8.417 9.929c-3.759 4.104-6.12 9.497-6.35 15.437h3.815zM42.775 8.474c-4.097-3.78-9.49-6.17-15.444-6.415v3.78c4.91.238 9.36 2.21 12.766 5.307l2.678-2.672zM9.907 44.194c4.32 3.967 10.08 6.386 16.402 6.386 6.329 0 12.089-2.42 16.409-6.386-1.822-1.67-4.508-3.687-3.363-4.832 3.341-3.34 5.407-7.956 5.407-13.046 0-10.195-8.258-18.454-18.453-18.454S7.855 16.121 7.855 26.316c0 5.098 2.067 9.706 5.407 13.046 1.138 1.138-1.504 3.154-3.355 4.832zM25.294 2.059c-5.955.245-11.348 2.635-15.444 6.415l2.67 2.672c3.406-3.096 7.863-5.07 12.766-5.307V2.06h.008zM7.697 56.42c.353-.057 3.967-.691 4.903-.857 1.138-.216 2.174.418 2.542 1.462.338.943 1.756 4.774 1.756 4.774l5.48-9.476C9.713 50.43 0 39.506 0 26.31 0 11.779 11.78 0 26.309 0c14.53 0 26.309 11.78 26.309 26.309 0 8.56-4.09 16.164-10.419 20.973l4.738 8.223c1.08 1.872-.792 3.175-2.146 2.93 0 0-3.953-.684-4.939-.864-.166-.029-.23.08-.245.13-.324.907-1.627 4.45-1.72 4.709-.454 1.303-2.528 2.29-3.615.41l-4.831-8.366c.705-.087 1.404-.195 2.088-.332l4.399 7.683s1.418-3.838 1.757-4.774c.367-1.051 1.404-1.677 2.541-1.461.936.165 4.55.792 4.904.856l-4.594-7.963c-4.097 2.643-8.978 4.169-14.22 4.169-.605 0-1.195-.022-1.793-.058l-5.969 10.253c-1.087 1.88-3.16.893-3.614-.41-.094-.26-1.397-3.802-1.72-4.709-.015-.05-.087-.158-.246-.13-.986.18-4.939.864-4.939.864-1.353.245-3.225-1.058-2.145-2.93l3.816-6.602c.54.41 1.101.799 1.67 1.173l-3.68 6.336zM30.03 23.911l9.684-4.032c1.253-.525 2.038 1.361.785 1.887l-9.785 4.075c.015.151.022.31.022.468 0 2.448-1.98 4.428-4.428 4.428s-4.428-1.98-4.428-4.428c0-2.441 1.98-4.428 4.428-4.428 1.562.007 2.937.813 3.722 2.03zm-3.722.015c-1.318 0-2.383 1.065-2.383 2.383 0 1.317 1.065 2.383 2.383 2.383 1.317 0 2.383-1.066 2.383-2.383 0-1.318-1.066-2.383-2.383-2.383z"/>
        <path d="M33.509 2.7c14.53 0 26.309 11.78 26.309 26.309 0 8.56-4.09 16.164-10.419 20.973l4.738 8.223c1.08 1.872-.792 3.175-2.146 2.93 0 0-3.953-.684-4.939-.864-.166-.029-.23.08-.245.13-.324.907-1.627 4.45-1.72 4.709-.454 1.303-2.528 2.29-3.615.41l-4.831-8.366c.705-.087 1.404-.195 2.088-.332l4.399 7.683s1.418-3.838 1.757-4.774c.367-1.051 1.404-1.677 2.541-1.461.936.165 4.55.792 4.904.856l-4.594-7.963c-4.097 2.643-8.978 4.169-14.22 4.169-.605 0-1.195-.022-1.793-.058l-5.969 10.253c-1.087 1.88-3.16.893-3.614-.41-.094-.26-1.397-3.802-1.72-4.709-.015-.05-.087-.158-.246-.13-.986.18-4.939.864-4.939.864-1.353.245-3.225-1.058-2.145-2.93l3.816-6.602c.54.41 1.101.799 1.67 1.173l-3.68 6.336c.354-.057 3.968-.691 4.904-.857 1.138-.216 2.174.418 2.542 1.462.338.943 1.756 4.774 1.756 4.774l5.48-9.476C16.913 53.13 7.2 42.206 7.2 29.01 7.2 14.479 18.98 2.7 33.509 2.7zm24.25 27.403h-3.817c-.216 4.867-2.167 9.281-5.234 12.665l2.671 2.671c3.744-4.075 6.12-9.432 6.38-15.336zm-44.713 0h-3.78c.26 5.904 2.636 11.261 6.38 15.336l2.67-2.671c-3.066-3.384-5.018-7.798-5.27-12.665zM47.7 24.466c1.253-.526.468-2.412-.785-1.887l-9.684 4.032c-.785-1.217-2.16-2.023-3.722-2.03-2.448 0-4.428 1.987-4.428 4.428 0 2.448 1.98 4.428 4.428 4.428s4.428-1.98 4.428-4.428c0-.159-.007-.317-.022-.468zm3.708-11.837L48.737 15.3c3.074 3.413 5.018 7.862 5.241 12.766h3.78c-.23-5.94-2.592-11.34-6.35-15.437zm-35.791 0c-3.759 4.104-6.12 9.497-6.35 15.437h3.815c.18-4.904 2.124-9.353 5.206-12.766l-2.671-2.671zm18.914-7.87v3.78c4.91.238 9.36 2.21 12.766 5.307l2.678-2.672c-4.097-3.78-9.49-6.17-15.444-6.415zm-2.045 0c-5.947.245-11.34 2.635-15.436 6.415l2.67 2.672c3.406-3.096 7.863-5.07 12.766-5.307V4.76z" opacity=".251"/>
    </g>
</svg>
