<svg xmlns="http://www.w3.org/2000/svg" width="67" height="47" viewBox="0 0 67 47">
    <g fill="#EF6333">
        <path stroke="#FFF" stroke-width=".7" d="M9.356 33.22c0-.86.677-1.536 1.54-1.536h14.156c.862 0 1.54.676 1.54 1.535v.246h7.817v-.246c0-.86.677-1.535 1.539-1.535h14.218c.862 0 1.54.676 1.54 1.535 0 .86-.678 1.535-1.54 1.535H37.24c-.492 1.044-1.539 1.781-2.831 1.781h-7.756c-1.231 0-2.34-.737-2.832-1.78H10.895c-.8 0-1.539-.676-1.539-1.536zM0 36.104V33.22c0-.86.677-1.535 1.539-1.535h2.893V3.991c0-2.21 1.785-3.991 4-3.991h44.012c2.154 0 3.94 1.658 4.124 3.868V31.684h2.893c.862 0 1.539.676 1.539 1.535v2.886C61 39.36 58.353 42 55.09 42H5.91C2.646 42 0 39.36 0 36.105zm3.078 0c0 1.535 1.292 2.825 2.831 2.825h49.243c1.54 0 2.832-1.29 2.832-2.825v-1.35H55.09c-.862 0-1.539-.676-1.539-1.536V4.114c-.062-.553-.554-1.044-1.046-1.044H8.433c-.493 0-.923.43-.923.921V33.22c0 .86-.678 1.535-1.54 1.535H3.079v1.351zm8.556-18.237C11.634 11.851 16.496 7 22.529 7c6.032 0 10.895 4.85 10.895 10.868 0 6.018-4.863 10.869-10.895 10.869-6.033 0-10.895-4.851-10.895-10.869zm12.434-7.675v6.14h6.155c-.616-3.07-3.078-5.526-6.155-6.14zm-9.357 7.675c0 4.299 3.509 7.799 7.818 7.799 3.816 0 6.955-2.702 7.694-6.263h-7.694c-.862 0-1.54-.676-1.54-1.536v-7.675c-3.57.737-6.278 3.868-6.278 7.675zm22.898 1.536h8.803c.861 0 1.539-.676 1.539-1.536s-.678-1.535-1.54-1.535H37.61c-.861 0-1.538.676-1.538 1.535 0 .86.738 1.536 1.538 1.536zm0-7.185h8.803c.861 0 1.539-.675 1.539-1.535 0-.86-.678-1.535-1.54-1.535H37.61c-.861 0-1.538.676-1.538 1.535 0 .86.738 1.535 1.538 1.535zm0 14.369h4.37c.863 0 1.54-.676 1.54-1.535 0-.86-.677-1.535-1.54-1.535h-4.37c-.861 0-1.538.675-1.538 1.535 0 .86.738 1.535 1.538 1.535z" transform="translate(1 1)"/>
        <path d="M7.078 42.512c0 1.647 1.387 3.03 3.037 3.03h52.831c1.651 0 3.038-1.383 3.038-3.03v-1.45H62.88c-.924 0-1.65-.724-1.65-1.646V8.19c-.067-.593-.595-1.12-1.124-1.12H12.823c-.528 0-.99.461-.99.988v31.358c0 .922-.727 1.647-1.652 1.647H7.078v1.449z" opacity=".255" transform="translate(1 1)"/>
    </g>
</svg>
